<mxfile host="app.diagrams.net" modified="2022-09-22T06:58:16.924Z" agent="5.0 (Windows NT 10.0; Win64; x64) AppleWebKit/537.36 (KHTML, like Gecko) Chrome/105.0.0.0 Safari/537.36 Edg/105.0.1343.42" etag="tAg2m-X37EsYAkLWH1QL" version="20.2.2" type="github">
  <diagram id="p6pu9cIDASSMnqPByv0z" name="第 1 页">
    <mxGraphModel dx="1661" dy="794" grid="1" gridSize="10" guides="1" tooltips="1" connect="1" arrows="1" fold="1" page="1" pageScale="1" pageWidth="827" pageHeight="1169" math="0" shadow="0">
      <root>
        <mxCell id="0" />
        <mxCell id="1" parent="0" />
        <mxCell id="6x7mnx0FF6uaDgrx3gPs-1" value="&lt;font style=&quot;font-size: 18px;&quot;&gt;数据传输/底层设置&lt;/font&gt;" style="rounded=0;whiteSpace=wrap;html=1;" vertex="1" parent="1">
          <mxGeometry x="140" y="85" width="220" height="50" as="geometry" />
        </mxCell>
        <mxCell id="6x7mnx0FF6uaDgrx3gPs-2" value="&lt;font style=&quot;font-size: 18px;&quot;&gt;底层API&lt;/font&gt;" style="text;html=1;strokeColor=none;fillColor=none;align=center;verticalAlign=middle;whiteSpace=wrap;rounded=0;fontSize=24;" vertex="1" parent="1">
          <mxGeometry x="450" y="90" width="100" height="40" as="geometry" />
        </mxCell>
        <mxCell id="6x7mnx0FF6uaDgrx3gPs-11" value="&lt;font style=&quot;font-size: 18px;&quot;&gt;连接建立/数据读写&lt;/font&gt;" style="rounded=0;whiteSpace=wrap;html=1;" vertex="1" parent="1">
          <mxGeometry x="140" y="160" width="220" height="50" as="geometry" />
        </mxCell>
        <mxCell id="6x7mnx0FF6uaDgrx3gPs-12" value="&lt;span style=&quot;font-size: 18px;&quot;&gt;网络通信与序列化&lt;/span&gt;" style="text;html=1;strokeColor=none;fillColor=none;align=center;verticalAlign=middle;whiteSpace=wrap;rounded=0;fontSize=24;" vertex="1" parent="1">
          <mxGeometry x="430" y="165" width="150" height="35" as="geometry" />
        </mxCell>
        <mxCell id="6x7mnx0FF6uaDgrx3gPs-13" value="&lt;span style=&quot;font-size: 18px;&quot;&gt;网络客户端/网络服务端&lt;/span&gt;" style="rounded=0;whiteSpace=wrap;html=1;" vertex="1" parent="1">
          <mxGeometry x="140" y="237.5" width="220" height="50" as="geometry" />
        </mxCell>
        <mxCell id="6x7mnx0FF6uaDgrx3gPs-14" value="&lt;span style=&quot;font-size: 18px;&quot;&gt;连接管理&lt;/span&gt;" style="text;html=1;strokeColor=none;fillColor=none;align=center;verticalAlign=middle;whiteSpace=wrap;rounded=0;fontSize=24;" vertex="1" parent="1">
          <mxGeometry x="450" y="245" width="110" height="35" as="geometry" />
        </mxCell>
        <mxCell id="6x7mnx0FF6uaDgrx3gPs-15" value="&lt;span style=&quot;font-size: 18px;&quot;&gt;网络鉴权/网络行为监测&lt;/span&gt;" style="rounded=0;whiteSpace=wrap;html=1;" vertex="1" parent="1">
          <mxGeometry x="140" y="320" width="220" height="50" as="geometry" />
        </mxCell>
        <mxCell id="6x7mnx0FF6uaDgrx3gPs-16" value="&lt;span style=&quot;font-size: 18px;&quot;&gt;对象状态与动作&lt;/span&gt;" style="text;html=1;strokeColor=none;fillColor=none;align=center;verticalAlign=middle;whiteSpace=wrap;rounded=0;fontSize=24;" vertex="1" parent="1">
          <mxGeometry x="435" y="327.5" width="130" height="35" as="geometry" />
        </mxCell>
        <mxCell id="6x7mnx0FF6uaDgrx3gPs-17" value="&lt;span style=&quot;font-size: 18px;&quot;&gt;网络场景/用户场景&lt;/span&gt;" style="rounded=0;whiteSpace=wrap;html=1;" vertex="1" parent="1">
          <mxGeometry x="140" y="400" width="220" height="50" as="geometry" />
        </mxCell>
        <mxCell id="6x7mnx0FF6uaDgrx3gPs-19" value="&lt;span style=&quot;font-size: 18px;&quot;&gt;对象生命周期&lt;/span&gt;" style="text;html=1;strokeColor=none;fillColor=none;align=center;verticalAlign=middle;whiteSpace=wrap;rounded=0;fontSize=24;" vertex="1" parent="1">
          <mxGeometry x="440" y="407.5" width="130" height="35" as="geometry" />
        </mxCell>
        <mxCell id="6x7mnx0FF6uaDgrx3gPs-20" value="&lt;span style=&quot;font-size: 18px;&quot;&gt;网络管理&lt;/span&gt;" style="rounded=0;whiteSpace=wrap;html=1;" vertex="1" parent="1">
          <mxGeometry x="140" y="480" width="220" height="50" as="geometry" />
        </mxCell>
        <mxCell id="6x7mnx0FF6uaDgrx3gPs-21" value="&lt;span style=&quot;font-size: 18px;&quot;&gt;应用控制&lt;/span&gt;" style="text;html=1;strokeColor=none;fillColor=none;align=center;verticalAlign=middle;whiteSpace=wrap;rounded=0;fontSize=24;" vertex="1" parent="1">
          <mxGeometry x="440" y="487.5" width="130" height="35" as="geometry" />
        </mxCell>
        <mxCell id="6x7mnx0FF6uaDgrx3gPs-23" value="&lt;span style=&quot;font-size: 18px;&quot;&gt;用户控制&lt;/span&gt;" style="text;html=1;strokeColor=none;fillColor=none;align=center;verticalAlign=middle;whiteSpace=wrap;rounded=0;fontSize=24;" vertex="1" parent="1">
          <mxGeometry x="440" y="567.5" width="130" height="35" as="geometry" />
        </mxCell>
        <mxCell id="6x7mnx0FF6uaDgrx3gPs-24" value="&lt;span style=&quot;font-size: 18px;&quot;&gt;网络房间管理&lt;/span&gt;" style="rounded=0;whiteSpace=wrap;html=1;" vertex="1" parent="1">
          <mxGeometry x="140" y="560" width="220" height="50" as="geometry" />
        </mxCell>
        <mxCell id="6x7mnx0FF6uaDgrx3gPs-26" value="&lt;span style=&quot;font-size: 18px;&quot;&gt;网络协议转换&lt;br&gt;网络数据同步&lt;br&gt;用户网络距离检测&lt;br&gt;&lt;/span&gt;" style="rounded=0;whiteSpace=wrap;html=1;" vertex="1" parent="1">
          <mxGeometry x="140" y="640" width="220" height="90" as="geometry" />
        </mxCell>
        <mxCell id="6x7mnx0FF6uaDgrx3gPs-27" value="&lt;span style=&quot;font-size: 18px;&quot;&gt;引擎聚合&lt;/span&gt;" style="text;html=1;strokeColor=none;fillColor=none;align=center;verticalAlign=middle;whiteSpace=wrap;rounded=0;fontSize=24;" vertex="1" parent="1">
          <mxGeometry x="440" y="667.5" width="130" height="35" as="geometry" />
        </mxCell>
      </root>
    </mxGraphModel>
  </diagram>
</mxfile>
